<svg width="48" height="48" viewBox="0 0 48 48" fill="none" xmlns="http://www.w3.org/2000/svg">
<path d="M23.1079 21.756L27.8533 26.5106C28.2196 26.8777 28.6778 27.0614 29.2278 27.062C29.7778 27.0625 30.253 26.8796 30.6533 26.5134C31.0537 26.1138 31.2542 25.639 31.2547 25.089C31.2552 24.539 31.0557 24.0638 30.6561 23.6634L24.5121 17.5074C24.1125 17.107 23.646 16.9065 23.1127 16.906C22.5793 16.9055 22.1125 17.105 21.7121 17.5046L15.506 23.6986C15.1057 24.0982 14.9135 24.5647 14.9297 25.098C14.9458 25.6314 15.1537 26.0983 15.5533 26.4987C15.953 26.8657 16.4194 27.0578 16.9528 27.075C17.4861 27.0922 17.9529 26.901 18.3533 26.5014L23.1079 21.756ZM23.1261 3.10602C25.8928 3.10872 28.4923 3.63625 30.9246 4.68862C33.3569 5.74099 35.4722 7.16805 37.2704 8.9698C39.0686 10.7716 40.4916 12.8896 41.5392 15.324C42.5868 17.7583 43.1093 20.3588 43.1066 23.1255C43.1039 25.8922 42.5764 28.4916 41.524 30.924C40.4716 33.3563 39.0446 35.4715 37.2428 37.2698C35.4411 39.068 33.323 40.491 30.8887 41.5386C28.4543 42.5862 25.8538 43.1087 23.0871 43.106C20.3205 43.1033 17.721 42.5758 15.2887 41.5234C12.8564 40.471 10.7411 39.044 8.94284 37.2422C7.1446 35.4405 5.72166 33.3224 4.67403 30.8881C3.6264 28.4537 3.10394 25.8532 3.10663 23.0865C3.10933 20.3199 3.63686 17.7204 4.68923 15.2881C5.7416 12.8558 7.16866 10.7405 8.97042 8.94223C10.7722 7.14398 12.8902 5.72104 15.3246 4.67342C17.7589 3.62579 20.3594 3.10332 23.1261 3.10602Z" fill="black"/>
</svg>
