<svg width="40" height="40" viewBox="0 0 40 40" fill="none" xmlns="http://www.w3.org/2000/svg">
<path d="M27.8661 18C25.2857 18 24.9286 20.5714 24.9286 20.5714H30.4107C30.4107 20.5714 30.4464 18 27.8661 18Z" fill="black"/>
<path d="M15.4286 20.5713H10.5714V25.0356H15.1875C15.8839 25.0177 17.1875 24.8213 17.1875 22.8659C17.1875 20.5445 15.4286 20.5713 15.4286 20.5713Z" fill="black"/>
<path d="M20 0C8.95536 0 0 8.95536 0 20C0 31.0446 8.95536 40 20 40C31.0446 40 40 31.0446 40 20C40 8.95536 31.0446 0 20 0ZM24.2143 12.2857H31.0982V14.3393H24.2143V12.2857ZM20.7321 23.0714C20.7321 28.1607 15.4286 28 15.4286 28H6.75V11.3036H15.4286C18.0714 11.3036 20.1518 12.7589 20.1518 15.75C20.1518 18.7411 17.6071 18.9286 17.6071 18.9286C20.9643 18.9286 20.7321 23.0714 20.7321 23.0714ZM33.6071 22.7946H24.9554C24.9554 25.8929 27.8929 25.6964 27.8929 25.6964C30.6696 25.6964 30.5714 23.9018 30.5714 23.9018H33.5089C33.5089 28.6696 27.7946 28.3393 27.7946 28.3393C20.9464 28.3393 21.3839 21.9554 21.3839 21.9554C21.3839 21.9554 21.375 15.5446 27.7946 15.5446C34.5536 15.5536 33.6071 22.7946 33.6071 22.7946Z" fill="black"/>
<path d="M16.6071 16.009C16.6071 14.2769 15.4286 14.2769 15.4286 14.2769H10.5714V18.0001H15.125C15.9107 18.0001 16.6071 17.7411 16.6071 16.009Z" fill="black"/>
</svg>
