<svg width="43" height="44" viewBox="0 0 43 44" fill="none" xmlns="http://www.w3.org/2000/svg">
<g clip-path="url(#clip0_237_54)">
<path d="M20.0062 22.1507L24.6701 17.3161C25.0301 16.9429 25.2052 16.4814 25.1953 15.9315C25.1854 15.3815 24.9936 14.9099 24.6198 14.5166C24.2127 14.1238 23.7342 13.9324 23.1843 13.9423C22.6343 13.9521 22.163 14.1606 21.7703 14.5677L15.7317 20.8272C15.339 21.2343 15.1474 21.7045 15.1569 22.2378C15.1665 22.771 15.3749 23.234 15.782 23.6268L22.0923 29.7144C22.4995 30.1072 22.9695 30.2904 23.5024 30.2642C24.0354 30.2379 24.4982 30.0212 24.891 29.6141C25.2504 29.2076 25.4337 28.7376 25.4408 28.204C25.4478 27.6705 25.2478 27.2073 24.8407 26.8146L20.0062 22.1507ZM1.35917 22.4856C1.30948 19.7194 1.7877 17.1104 2.79383 14.6586C3.79996 12.2068 5.18672 10.0649 6.9541 8.23282C8.72148 6.40078 10.8122 4.93799 13.2263 3.84446C15.6404 2.75093 18.2305 2.17932 20.9968 2.12963C23.763 2.07995 26.372 2.55817 28.8238 3.5643C31.2756 4.57043 33.4175 5.95718 35.2495 7.72457C37.0816 9.49195 38.5444 11.5827 39.6379 13.9968C40.7314 16.4108 41.303 19.001 41.3527 21.7672C41.4024 24.5334 40.9242 27.1425 39.9181 29.5943C38.9119 32.046 37.5252 34.188 35.7578 36.02C33.9904 37.852 31.8997 39.3148 29.4856 40.4084C27.0715 41.5019 24.4814 42.0735 21.7151 42.1232C18.9489 42.1729 16.3399 41.6947 13.8881 40.6885C11.4363 39.6824 9.29438 38.2956 7.46235 36.5283C5.63031 34.7609 4.16753 32.6701 3.074 30.2561C1.98046 27.842 1.40886 25.2518 1.35917 22.4856Z" fill="black"/>
</g>
<defs>
<clipPath id="clip0_237_54">
<rect width="41.7166" height="41.7166" fill="white" transform="translate(41.7099 0.770447) rotate(88.9709)"/>
</clipPath>
</defs>
</svg>
