<svg width="43" height="42" viewBox="0 0 43 42" fill="none" xmlns="http://www.w3.org/2000/svg">
<g clip-path="url(#clip0_237_88)">
<path d="M22.5434 20.8713L17.7934 25.6213C17.4267 25.988 17.2434 26.4463 17.2434 26.9963C17.2434 27.5463 17.4267 28.0213 17.7934 28.4213C18.1934 28.8213 18.6684 29.0213 19.2184 29.0213C19.7684 29.0213 20.2434 28.8213 20.6434 28.4213L26.7934 22.2713C27.1934 21.8713 27.3934 21.4047 27.3934 20.8713C27.3934 20.338 27.1934 19.8713 26.7934 19.4713L20.5934 13.2713C20.1934 12.8713 19.7267 12.6797 19.1934 12.6963C18.66 12.713 18.1934 12.9213 17.7934 13.3213C17.4267 13.7213 17.235 14.188 17.2184 14.7213C17.2017 15.2547 17.3934 15.7213 17.7934 16.1213L22.5434 20.8713ZM41.1934 20.8713C41.1934 23.638 40.6684 26.238 39.6184 28.6713C38.5684 31.1047 37.1434 33.2213 35.3434 35.0213C33.5434 36.8213 31.4267 38.2463 28.9934 39.2963C26.56 40.3463 23.96 40.8713 21.1934 40.8713C18.4267 40.8713 15.8267 40.3463 13.3934 39.2963C10.96 38.2463 8.84336 36.8213 7.04336 35.0213C5.24336 33.2213 3.81836 31.1047 2.76836 28.6713C1.71836 26.238 1.19336 23.638 1.19336 20.8713C1.19336 18.1047 1.71836 15.5047 2.76836 13.0713C3.81836 10.638 5.24336 8.52133 7.04336 6.72133C8.84336 4.92133 10.96 3.49633 13.3934 2.44633C15.8267 1.39633 18.4267 0.871334 21.1934 0.871334C23.96 0.871334 26.56 1.39633 28.9934 2.44634C31.4267 3.49633 33.5434 4.92133 35.3434 6.72133C37.1434 8.52133 38.5684 10.638 39.6184 13.0713C40.6684 15.5047 41.1934 18.1047 41.1934 20.8713Z" fill="black"/>
</g>
<defs>
<clipPath id="clip0_237_88">
<rect width="41.7166" height="41.7166" fill="white" transform="translate(0.459106 41.8583) rotate(-90)"/>
</clipPath>
</defs>
</svg>
