<svg width="24" height="24" viewBox="0 0 24 24" fill="none" xmlns="http://www.w3.org/2000/svg">
<path d="M5.25781 21C4.70553 21.5523 3.8101 21.5523 3.25781 21C2.70553 20.4477 2.70553 19.5523 3.25781 19L10.2578 12L3.25781 5C2.70553 4.44771 2.70553 3.55228 3.25781 3C3.8101 2.44772 4.70553 2.44772 5.25781 3L12.2578 10L19.2578 3C19.8101 2.44771 20.7055 2.44772 21.2578 3C21.8101 3.55228 21.8101 4.44772 21.2578 5L14.2578 12L21.2578 19C21.8101 19.5523 21.8101 20.4477 21.2578 21C20.7055 21.5523 19.8101 21.5523 19.2578 21L12.2578 14L5.25781 21Z" fill="black"/>
</svg>
