<svg width="40" height="40" viewBox="0 0 40 40" fill="none" xmlns="http://www.w3.org/2000/svg">
<g clip-path="url(#clip0_425_966)">
<path d="M7.08203 0H32.918C36.8281 0 40 3.25391 40 7.26562V32.7344C40 36.7461 36.8281 40 32.918 40H7.08203C3.17187 40 0 36.7461 0 32.7344V7.26562C0 3.25391 3.17187 0 7.08203 0Z" fill="#001E36"/>
<path d="M14.1096 21.3086V28.0508C14.1174 28.1094 14.0979 28.1719 14.0588 28.2148C14.0159 28.2578 13.9534 28.2812 13.8948 28.2695H10.594C10.5393 28.2773 10.4846 28.2578 10.4494 28.2148C10.4143 28.1562 10.4026 28.0898 10.4065 28.0234V10.4375C10.4065 10.1797 10.469 10.0508 10.594 10.0508H21.2229C21.2854 10.0469 21.3518 10.0586 21.4104 10.0937C21.4455 10.1211 21.4729 10.2461 21.4885 10.4648L21.7854 13.4648C21.801 13.5195 21.7854 13.5781 21.7463 13.6172C21.6994 13.6601 21.6369 13.6875 21.5705 13.6836H14.1096V17.8672H20.8205C20.9807 17.8672 21.0588 17.9336 21.0588 18.0586V21.0859C21.0705 21.1484 21.0471 21.2109 21.008 21.2539C20.9651 21.2969 20.9065 21.3164 20.844 21.3086H14.1096Z" fill="#31A8FF"/>
<path d="M23.422 14.5938H26.3478C26.5079 14.5938 26.6525 14.707 26.6954 14.8672C26.7579 14.9883 26.8048 15.1172 26.8283 15.2539C26.8673 15.4297 26.8947 15.6094 26.9103 15.7891C26.9259 15.9805 26.9376 16.1875 26.9376 16.4102C27.4376 15.8086 28.0431 15.3125 28.7228 14.9375C29.4845 14.5156 30.3361 14.3008 31.2033 14.3164C31.2697 14.3086 31.3361 14.332 31.3829 14.3789C31.4337 14.4297 31.4533 14.4961 31.4454 14.5664V17.8945C31.4454 18.0235 31.3556 18.086 31.1759 18.086C30.0939 18.0195 29.0158 18.2188 28.0236 18.6641C27.6876 18.8164 27.3829 19.0313 27.1251 19.2969V28.0235C27.1251 28.1875 27.0548 28.2695 26.9103 28.2695H23.6642C23.59 28.2813 23.5158 28.2578 23.4611 28.2031C23.4103 28.1485 23.3829 28.0703 23.3947 27.9961V18.5274C23.3947 18.125 23.3908 17.6992 23.3829 17.25C23.3712 16.8008 23.3595 16.3555 23.34 15.9141C23.3283 15.5352 23.2931 15.1602 23.2345 14.7852C23.2189 14.7305 23.2345 14.6719 23.2736 14.6328C23.3126 14.5938 23.3673 14.5781 23.422 14.5938Z" fill="#31A8FF"/>
</g>
<defs>
<clipPath id="clip0_425_966">
<rect width="40" height="40" fill="white"/>
</clipPath>
</defs>
</svg>
