<svg width="40" height="40" viewBox="0 0 40 40" fill="none" xmlns="http://www.w3.org/2000/svg">
<g clip-path="url(#clip0_107_265)">
<path d="M0 20.5128C0 29.4506 5.57143 37.0696 13.4286 39.8535C14.4286 40.1465 14.2857 39.4139 14.2857 38.8278V35.3114C8.28572 36.044 8 31.9414 7.57143 31.2088C6.71429 29.7436 4.85714 29.4506 5.42857 28.718C6.85714 27.9853 8.28571 28.8645 9.85714 31.3553C11 33.1136 13.2857 32.8205 14.5714 32.5275C14.8571 31.5018 15.4286 30.4762 16.1429 29.7436C9.71429 28.7179 7.14286 24.7619 7.14286 20.0733C7.14286 17.8755 7.85714 15.6777 9.28571 14.0659C8.28571 11.2821 9.28572 8.79121 9.42857 8.49817C12 8.20513 14.7143 10.4029 15 10.5495C16.4286 10.1099 18.1429 9.96337 20 9.96337C21.8571 9.96337 23.5714 10.2564 25 10.5495C25.5714 10.1099 28 8.35165 30.4286 8.49817C30.5714 8.79121 31.5714 11.1355 30.7143 13.9194C32.1429 15.6777 32.8571 17.7289 32.8571 19.9267C32.8571 24.6154 30.2857 28.5714 23.8571 29.7436C24.8571 30.7692 25.5714 32.2344 25.5714 33.9927V39.1209C25.5714 39.5604 25.5714 40 26.2857 40C34.2857 37.2161 40 29.5971 40 20.5128C40 9.23077 31 0 20 0C9 0 0 9.23077 0 20.5128Z" fill="black"/>
</g>
<defs>
<clipPath id="clip0_107_265">
<rect width="40" height="40" fill="white"/>
</clipPath>
</defs>
</svg>
