<svg width="40" height="39" viewBox="0 0 40 39" fill="none" xmlns="http://www.w3.org/2000/svg">
<g clip-path="url(#clip0_425_881)">
<path d="M7.12485 9.1354e-06H32.9998C33.9274 0.000585886 34.8456 0.185363 35.7011 0.543619C36.5567 0.901875 37.3326 1.42647 37.9838 2.08698C38.635 2.74748 39.1485 3.53073 39.4946 4.39129C39.8407 5.25184 40.0124 6.17256 39.9998 7.10001V31.9C39.9985 32.8341 39.8132 33.7588 39.4543 34.6213C39.0955 35.4837 38.5702 36.267 37.9085 36.9264C37.2469 37.5857 36.4617 38.1083 35.598 38.4641C34.7343 38.8199 33.809 39.002 32.8748 39H7.12485C6.19073 39.002 5.26538 38.8199 4.40167 38.4641C3.53796 38.1083 2.75284 37.5857 2.09115 36.9264C1.42947 36.267 0.904202 35.4837 0.545366 34.6213C0.186529 33.7588 0.00115829 32.8341 -0.000153445 31.9V7.10001C-0.00929768 6.16297 0.168937 5.23355 0.524078 4.36637C0.879218 3.49919 1.4041 2.71174 2.06788 2.05028C2.73167 1.38883 3.52096 0.866719 4.38938 0.514628C5.25781 0.162538 6.18784 -0.0124287 7.12485 9.1354e-06Z" fill="#330000"/>
<path d="M19.375 23.317H13.125L11.875 27.192C11.875 27.317 11.75 27.442 11.5 27.442H8.5C8.43516 27.4376 8.37412 27.4098 8.32816 27.3639C8.2822 27.3179 8.25444 27.2569 8.25 27.192L13.625 11.692C13.75 11.567 13.75 11.442 13.75 11.192C13.8531 10.8264 13.8954 10.4463 13.875 10.067L14 9.94202H18.25C18.375 9.94202 18.5 9.94202 18.5 10.067L24.625 27.192C24.625 27.317 24.625 27.442 24.5 27.442H21C20.9352 27.4376 20.8741 27.4098 20.8282 27.3639C20.7822 27.3179 20.7544 27.2569 20.75 27.192L19.375 23.317ZM14.125 19.942H18.375C18.25 19.567 18.125 19.192 18 18.692C17.8892 18.2153 17.7213 17.7536 17.5 17.317C17.375 16.817 17.125 16.317 17 15.817C16.8901 15.2998 16.7224 14.7967 16.5 14.317C16.3348 13.9135 16.2092 13.4948 16.125 13.067C15.9917 13.7953 15.7823 14.5076 15.5 15.192C15.25 15.942 15 16.817 14.75 17.692C14.6 18.457 14.3911 19.2093 14.125 19.942Z" fill="#FF9A00"/>
<path d="M28.2502 12.821C27.6909 12.8016 27.1578 12.5794 26.7502 12.196C26.4018 11.7761 26.2235 11.2409 26.2502 10.696C26.2696 10.1367 26.4917 9.60361 26.8752 9.19601C27.0715 8.99791 27.3052 8.84067 27.5626 8.73336C27.8201 8.62605 28.0963 8.5708 28.3752 8.5708C28.6541 8.5708 28.9303 8.62605 29.1877 8.73336C29.4452 8.84067 29.6788 8.99791 29.8752 9.19601C30.0725 9.38772 30.221 9.62404 30.308 9.88507C30.395 10.1461 30.418 10.4242 30.3752 10.696C30.4062 10.9785 30.3651 11.2642 30.2558 11.5265C30.1465 11.7888 29.9726 12.0191 29.7502 12.196C29.5552 12.396 29.3219 12.5544 29.0641 12.6619C28.8063 12.7693 28.5294 12.8234 28.2502 12.821ZM26.5002 27.196V14.446C26.5046 14.3812 26.5324 14.3201 26.5783 14.2742C26.6243 14.2282 26.6853 14.2004 26.7502 14.196H30.0002C30.065 14.2004 30.1261 14.2282 30.172 14.2742C30.218 14.3201 30.2457 14.3812 30.2502 14.446V27.321C30.2457 27.3859 30.218 27.4469 30.172 27.4929C30.1261 27.5388 30.065 27.5666 30.0002 27.571H26.7502C26.5002 27.571 26.5002 27.446 26.5002 27.196Z" fill="#FF9A00"/>
</g>
<defs>
<clipPath id="clip0_425_881">
<rect width="40" height="39" fill="white"/>
</clipPath>
</defs>
</svg>
