<svg width="43" height="42" viewBox="0 0 43 42" fill="none" xmlns="http://www.w3.org/2000/svg">
<path d="M34.5176 0.65625H8.48242C4.53984 0.65625 1.34375 3.77801 1.34375 7.62891V32.0742C1.34375 35.9251 4.53984 39.0469 8.48242 39.0469H34.5176C38.4602 39.0469 41.6562 35.9251 41.6562 32.0742V7.62891C41.6562 3.77801 38.4602 0.65625 34.5176 0.65625Z" fill="#49021F"/>
<path d="M15.9834 10.6996V27.5253C15.9834 27.7016 15.9022 27.7896 15.74 27.7895H12.4677C12.3233 27.7895 12.2512 27.7014 12.2515 27.5253V10.6996C12.2515 10.5588 12.3326 10.4884 12.4948 10.4882H15.767C15.7964 10.4842 15.8263 10.4868 15.8545 10.496C15.8827 10.5052 15.9082 10.5206 15.9292 10.5411C15.9502 10.5616 15.966 10.5866 15.9754 10.6141C15.9848 10.6416 15.9875 10.6709 15.9834 10.6996Z" fill="#FF3366"/>
<path d="M25.6649 28.0536C24.4202 28.0721 23.1869 27.8194 22.0546 27.314C20.9999 26.8372 20.1182 26.0589 19.5262 25.082C18.913 24.0874 18.6065 22.8415 18.6067 21.3444C18.5965 20.1321 18.9137 18.9386 19.5262 17.8842C20.1571 16.8101 21.0849 15.9313 22.2034 15.3484C23.3751 14.7145 24.7903 14.3975 26.4491 14.3975C26.5391 14.3975 26.6563 14.4019 26.8007 14.4107C26.9448 14.4198 27.116 14.433 27.3145 14.4504V9.24679C27.3145 9.12379 27.3686 9.0619 27.4768 9.0619H30.8842C30.9062 9.05882 30.9287 9.06079 30.9498 9.06767C30.9709 9.07454 30.9901 9.08612 31.0059 9.1015C31.0216 9.11687 31.0335 9.13561 31.0405 9.15624C31.0476 9.17687 31.0496 9.19882 31.0465 9.22035V24.8311C31.0465 25.1307 31.06 25.4565 31.087 25.8084C31.114 26.1608 31.1366 26.4778 31.1546 26.7593C31.158 26.8142 31.1442 26.8687 31.1153 26.9159C31.0863 26.963 31.0435 27.0005 30.9923 27.0235C30.1133 27.3815 29.1977 27.6472 28.261 27.8158C27.4046 27.9702 26.5358 28.0498 25.6649 28.0536ZM27.3145 24.7783V17.5672C27.1683 17.5286 27.0191 17.502 26.8683 17.488C26.6841 17.4699 26.499 17.4611 26.3139 17.4616C25.6577 17.4552 25.0091 17.6 24.4209 17.8842C23.848 18.1624 23.3588 18.581 23.0012 19.0992C22.6315 19.6275 22.4466 20.3231 22.4468 21.1859C22.4336 21.7617 22.5299 22.3349 22.7307 22.8764C22.8941 23.3128 23.1525 23.7093 23.4879 24.0387C23.8091 24.3417 24.1979 24.5678 24.6237 24.699C25.0735 24.8413 25.5436 24.9126 26.0164 24.9103C26.2687 24.9103 26.5031 24.9015 26.7195 24.8839C26.9211 24.8691 27.1205 24.8337 27.3145 24.7783Z" fill="#FF3366"/>
</svg>
