<svg width="40" height="40" viewBox="0 0 40 40" fill="none" xmlns="http://www.w3.org/2000/svg">
<path d="M40 19.9999C40 31.0447 31.0459 39.9979 20 39.9979C8.9541 39.9979 0 31.0447 0 19.9999C0 8.95514 8.9541 0.00195312 20 0.00195312C31.0459 0.00195312 40 8.95514 40 19.9999Z" fill="black"/>
<path d="M25.4257 9.50977H14.5731C11.7766 9.50977 9.50867 11.7775 9.50867 14.5737V25.4252C9.50867 28.2214 11.7766 30.4891 14.5731 30.4891H25.4257C28.2222 30.4891 30.4901 28.2214 30.4901 25.4252V14.5737C30.4901 11.7775 28.2222 9.50977 25.4257 9.50977ZM28.6822 25.0638C28.6822 27.0608 27.0615 28.6814 25.0643 28.6814H14.9355C12.9383 28.6814 11.3176 27.0608 11.3176 25.0638V14.936C11.3176 12.9391 12.9383 11.3185 14.9355 11.3185H25.0643C27.0615 11.3185 28.6822 12.9391 28.6822 14.936V25.0638Z" fill="white"/>
<path d="M20.0099 14.5737C17.0152 14.5737 14.5841 17.0045 14.5841 19.999C14.5841 22.9934 17.0152 25.4242 20.0099 25.4242C23.0047 25.4242 25.4357 22.9934 25.4357 19.999C25.4357 17.0045 23.0047 14.5737 20.0099 14.5737ZM20.0099 23.6165C18.0168 23.6165 16.392 21.9919 16.392 19.999C16.392 18.006 18.0168 16.3815 20.0099 16.3815C22.0031 16.3815 23.6278 18.006 23.6278 19.999C23.6278 21.9919 22.0031 23.6165 20.0099 23.6165Z" fill="white"/>
<path d="M25.7982 15.2971C26.3975 15.2971 26.8833 14.8113 26.8833 14.212C26.8833 13.6127 26.3975 13.127 25.7982 13.127C25.1989 13.127 24.713 13.6127 24.713 14.212C24.713 14.8113 25.1989 15.2971 25.7982 15.2971Z" fill="white"/>
</svg>
