<svg width="40" height="40" viewBox="0 0 40 40" fill="none" xmlns="http://www.w3.org/2000/svg">
<rect width="40" height="40" rx="20" fill="black"/>
<g clip-path="url(#clip0_107_261)">
<path d="M9.9545 10C9.42694 10 9 10.4269 9 10.9545V21.5C9 27.853 14.147 33 20.5 33C26.853 33 32 27.853 32 21.5C32 15.147 26.853 10 20.5 10H9.9545ZM20.6574 13.4327C25.0669 13.4737 28.6089 17.0826 28.5708 21.4928C28.5256 25.9023 24.9174 29.44 20.5108 29.3991C16.1041 29.3581 12.5593 25.7492 12.6009 21.3433C12.6419 16.9338 16.2508 13.3918 20.6567 13.4335L20.6574 13.4327ZM20.6308 15.6077C17.4 15.5818 14.7608 18.1758 14.7313 21.403C14.7011 24.6337 17.2958 27.2766 20.5302 27.3104C22.0798 27.3219 23.5734 26.7188 24.6781 25.6335C25.7864 24.5482 26.4153 23.0654 26.4261 21.5158C26.4563 18.285 23.8652 15.6422 20.6387 15.6084L20.6308 15.6077ZM20.6085 18.4942C22.2444 18.5129 23.5583 19.8533 23.5475 21.4892C23.5324 23.1251 22.1927 24.439 20.5568 24.4203C16.6073 24.3829 16.6597 18.4604 20.6093 18.4942H20.6085Z" fill="white"/>
</g>
<defs>
<clipPath id="clip0_107_261">
<rect width="23" height="23" fill="white" transform="translate(9 10)"/>
</clipPath>
</defs>
</svg>
