<svg width="40" height="40" viewBox="0 0 40 40" fill="none" xmlns="http://www.w3.org/2000/svg">
<rect width="40" height="40" rx="20" fill="black"/>
<g clip-path="url(#clip0_107_272)">
<path d="M14.121 14.0776H9.70451C9.5085 14.0776 9.34967 14.2365 9.34967 14.4325V28.6209C9.34967 28.8169 9.5085 28.9758 9.70451 28.9758H14.121C14.3171 28.9758 14.4759 28.8169 14.4759 28.6209V14.4325C14.4759 14.2365 14.3171 14.0776 14.121 14.0776Z" fill="white"/>
<path d="M11.9144 7.02441C10.3074 7.02441 9 8.33036 9 9.93558C9 11.5415 10.3074 12.848 11.9144 12.848C13.5201 12.848 14.8264 11.5414 14.8264 9.93558C14.8265 8.33036 13.5201 7.02441 11.9144 7.02441Z" fill="white"/>
<path d="M25.3548 13.7251C23.581 13.7251 22.2697 14.4876 21.4744 15.3541V14.4326C21.4744 14.2366 21.3156 14.0777 21.1195 14.0777H16.8899C16.6939 14.0777 16.5351 14.2366 16.5351 14.4326V28.621C16.5351 28.817 16.6939 28.9759 16.8899 28.9759H21.2968C21.4928 28.9759 21.6517 28.817 21.6517 28.621V21.601C21.6517 19.2355 22.2942 18.3139 23.9432 18.3139C25.7391 18.3139 25.8818 19.7913 25.8818 21.7227V28.6211C25.8818 28.8171 26.0407 28.9759 26.2367 28.9759H30.6452C30.8412 28.9759 31 28.8171 31 28.6211V20.8385C31 17.321 30.3293 13.7251 25.3548 13.7251Z" fill="white"/>
</g>
<defs>
<clipPath id="clip0_107_272">
<rect width="22" height="22" fill="white" transform="translate(9 7)"/>
</clipPath>
</defs>
</svg>
