<svg width="24" height="24" viewBox="0 0 24 24" fill="none" xmlns="http://www.w3.org/2000/svg">
<path d="M3.33333 20C2.59695 20 2 19.403 2 18.6667C2 17.9303 2.59695 17.3333 3.33333 17.3333H20.6667C21.403 17.3333 22 17.9303 22 18.6667C22 19.403 21.403 20 20.6667 20H3.33333ZM3.33333 13.3333C2.59695 13.3333 2 12.7364 2 12C2 11.2636 2.59695 10.6667 3.33333 10.6667H20.6667C21.403 10.6667 22 11.2636 22 12C22 12.7364 21.403 13.3333 20.6667 13.3333H3.33333ZM3.33333 6.66667C2.59695 6.66667 2 6.06971 2 5.33333C2 4.59695 2.59695 4 3.33333 4H20.6667C21.403 4 22 4.59695 22 5.33333C22 6.06971 21.403 6.66667 20.6667 6.66667H3.33333Z" fill="black"/>
</svg>
