<svg width="40" height="39" viewBox="0 0 40 39" fill="none" xmlns="http://www.w3.org/2000/svg">
<g clip-path="url(#clip0_425_906)">
<path d="M7.12485 9.1354e-06H32.9998C33.9274 0.000585886 34.8456 0.185363 35.7011 0.543619C36.5567 0.901875 37.3326 1.42647 37.9838 2.08698C38.635 2.74748 39.1485 3.53073 39.4946 4.39129C39.8407 5.25184 40.0124 6.17256 39.9998 7.10001V31.9C39.9985 32.8341 39.8132 33.7588 39.4543 34.6213C39.0955 35.4837 38.5702 36.267 37.9085 36.9264C37.2469 37.5857 36.4617 38.1083 35.598 38.4641C34.7343 38.8199 33.809 39.002 32.8748 39H7.12485C6.19073 39.002 5.26538 38.8199 4.40167 38.4641C3.53796 38.1083 2.75284 37.5857 2.09115 36.9264C1.42947 36.267 0.904202 35.4837 0.545366 34.6213C0.186529 33.7588 0.00115829 32.8341 -0.000153445 31.9V7.10001C-0.00929768 6.16297 0.168937 5.23355 0.524078 4.36637C0.879218 3.49919 1.4041 2.71174 2.06788 2.05028C2.73167 1.38883 3.52096 0.866719 4.38938 0.514628C5.25781 0.162538 6.18784 -0.0124287 7.12485 9.1354e-06Z" fill="#001E36"/>
<path d="M9 27.317V10.192C9 10.067 9 9.942 9.125 9.942H14.375C15.5219 9.88528 16.6688 10.0552 17.75 10.442C18.5752 10.7059 19.34 11.1307 20 11.692C20.5554 12.2125 20.9832 12.8541 21.25 13.567C21.4953 14.2487 21.6222 14.9675 21.625 15.692C21.6556 16.9333 21.3068 18.1543 20.625 19.192C19.957 20.0938 19.0467 20.7873 18 21.192C16.7921 21.6019 15.5256 21.813 14.25 21.817H12.625V27.192C12.6119 27.2868 12.568 27.3746 12.5 27.442H9.25C9.125 27.567 9 27.442 9 27.317ZM12.625 13.192V18.817H14.125C14.7567 18.7953 15.3847 18.7115 16 18.567C16.5255 18.3974 16.9988 18.0962 17.375 17.692C17.7608 17.1948 17.9399 16.568 17.875 15.942C17.8695 15.4195 17.741 14.9056 17.5 14.442C17.1865 14.0453 16.8057 13.7068 16.375 13.442C15.7397 13.1861 15.0599 13.0586 14.375 13.067H13.25C13.0372 13.0823 12.8273 13.1243 12.625 13.192Z" fill="#31A8FF"/>
<path d="M32 17.681C31.49 17.3982 30.9431 17.1878 30.375 17.056C29.7597 16.9114 29.1317 16.8277 28.5 16.806C28.1618 16.7857 27.8228 16.8281 27.5 16.931C27.25 16.931 27.125 17.056 27 17.306C26.875 17.431 26.875 17.556 26.875 17.806C26.8666 17.8739 26.8734 17.9427 26.8951 18.0076C26.9167 18.0725 26.9525 18.1317 27 18.181C27.1826 18.3775 27.3932 18.546 27.625 18.681C27.975 18.8991 28.3536 19.0674 28.75 19.181C29.6411 19.4703 30.4839 19.8917 31.25 20.431C31.7687 20.8247 32.2313 21.2873 32.625 21.806C32.8808 22.3534 33.009 22.9518 33 23.556C32.9687 24.3443 32.7548 25.1145 32.375 25.806C31.8673 26.4372 31.2272 26.9492 30.5 27.306C29.5442 27.674 28.5235 27.8442 27.5 27.806C26.7444 27.7845 25.9919 27.7009 25.25 27.556C24.6516 27.4475 24.0654 27.28 23.5 27.056C23.375 27.056 23.25 26.806 23.25 26.681V23.806L23.375 23.681H23.5C24.1752 24.0473 24.8876 24.3406 25.625 24.556C26.2812 24.7084 26.9515 24.7922 27.625 24.806C28.0958 24.8204 28.5644 24.7352 29 24.556C29.1457 24.491 29.27 24.3861 29.3585 24.2533C29.447 24.1206 29.4961 23.9655 29.5 23.806C29.5024 23.6771 29.4685 23.5502 29.4022 23.4397C29.3359 23.3291 29.2398 23.2395 29.125 23.181C28.6334 22.8344 28.0827 22.5803 27.5 22.431C26.6481 22.1405 25.8468 21.7188 25.125 21.181C24.6136 20.8187 24.1871 20.3495 23.875 19.806C23.6192 19.2586 23.4909 18.6602 23.5 18.056C23.5155 17.3437 23.7322 16.6504 24.125 16.056C24.519 15.37 25.1369 14.8404 25.875 14.556C26.8132 14.1185 27.8401 13.9045 28.875 13.931C29.5856 13.9103 30.2967 13.9521 31 14.056C31.513 14.1217 32.0164 14.2476 32.5 14.431L32.625 14.556V17.556L32.5 17.681H32Z" fill="#31A8FF"/>
</g>
<defs>
<clipPath id="clip0_425_906">
<rect width="40" height="39" fill="white"/>
</clipPath>
</defs>
</svg>
